<svg version="1.1" xmlns="http://www.w3.org/2000/svg" xmlns:xlink="http://www.w3.org/1999/xlink" width="801.50634765625" height="181"><defs/><g><g transform="translate(-142,-222) scale(1,1)"><rect fill="#C0C0C0" stroke="none" x="407" y="239" width="53.7890625" height="44" opacity="0.2"/></g><g transform="translate(-142,-222) scale(1,1)"><rect fill="#ffffff" stroke="none" x="400" y="232" width="53.7890625" height="44"/></g><g transform="translate(-142,-222) scale(1,1)"><path fill="none" stroke="#000000" d="M 400 232 L 453.7890625 232 L 453.7890625 276 L 400 276 L 400 232 Z Z" stroke-miterlimit="10"/></g><g transform="translate(-142,-222) scale(1,1)"><path fill="none" stroke="#000000" d="M 400 257 L 453.7890625 257" stroke-miterlimit="10"/></g><g transform="translate(-142,-222) scale(1,1)"><path fill="none" stroke="#000000" d="M 400 267 L 453.7890625 267" stroke-miterlimit="10"/></g><g transform="translate(-142,-222) scale(1,1)"><g><path fill="none" stroke="none"/><text fill="#000000" stroke="none" font-family="Arial" font-size="13px" font-style="normal" font-weight="bold" text-decoration="none" x="406.6708984375" y="251.5">History</text></g></g><g transform="translate(-142,-222) scale(1,1)"><rect fill="#C0C0C0" stroke="none" x="873" y="340" width="67.50634765625" height="57" opacity="0.2"/></g><g transform="translate(-142,-222) scale(1,1)"><rect fill="#ffffff" stroke="none" x="866" y="333" width="67.50634765625" height="57"/></g><g transform="translate(-142,-222) scale(1,1)"><path fill="none" stroke="#000000" d="M 866 333 L 933.50634765625 333 L 933.50634765625 390 L 866 390 L 866 333 Z Z" stroke-miterlimit="10"/></g><g transform="translate(-142,-222) scale(1,1)"><path fill="none" stroke="#000000" d="M 866 358 L 933.50634765625 358" stroke-miterlimit="10"/></g><g transform="translate(-142,-222) scale(1,1)"><path fill="none" stroke="#000000" d="M 866 381 L 933.50634765625 381" stroke-miterlimit="10"/></g><g transform="translate(-142,-222) scale(1,1)"><g><path fill="none" stroke="none"/><text fill="#000000" stroke="none" font-family="Arial" font-size="13px" font-style="normal" font-weight="bold" text-decoration="none" x="872.65185546875" y="352.5">BetBoard</text></g></g><g transform="translate(-142,-222) scale(1,1)"><g><path fill="none" stroke="none"/><text fill="#000000" stroke="none" font-family="Arial" font-size="13px" font-style="normal" font-weight="normal" text-decoration="none" x="871" y="375.5">-bets</text></g></g><g transform="translate(-142,-222) scale(1,1)"><rect fill="#C0C0C0" stroke="none" x="583" y="239" width="77.61181640625" height="44" opacity="0.2"/></g><g transform="translate(-142,-222) scale(1,1)"><rect fill="#ffffff" stroke="none" x="576" y="232" width="77.61181640625" height="44"/></g><g transform="translate(-142,-222) scale(1,1)"><path fill="none" stroke="#000000" d="M 576 232 L 653.61181640625 232 L 653.61181640625 276 L 576 276 L 576 232 Z Z" stroke-miterlimit="10"/></g><g transform="translate(-142,-222) scale(1,1)"><path fill="none" stroke="#000000" d="M 576 257 L 653.61181640625 257" stroke-miterlimit="10"/></g><g transform="translate(-142,-222) scale(1,1)"><path fill="none" stroke="#000000" d="M 576 267 L 653.61181640625 267" stroke-miterlimit="10"/></g><g transform="translate(-142,-222) scale(1,1)"><g><path fill="none" stroke="none"/><text fill="#000000" stroke="none" font-family="Arial" font-size="13px" font-style="normal" font-weight="bold" text-decoration="none" x="583.00732421875" y="251.5">LogRecord</text></g></g><g transform="translate(-142,-222) scale(1,1)"><rect fill="#C0C0C0" stroke="none" x="159" y="255" width="173.78515625" height="145" opacity="0.2"/></g><g transform="translate(-142,-222) scale(1,1)"><rect fill="#ffffff" stroke="none" x="152" y="248" width="173.78515625" height="145"/></g><g transform="translate(-142,-222) scale(1,1)"><path fill="none" stroke="#000000" d="M 152 248 L 325.78515625 248 L 325.78515625 393 L 152 393 L 152 248 Z Z" stroke-miterlimit="10"/></g><g transform="translate(-142,-222) scale(1,1)"><path fill="none" stroke="#000000" d="M 152 273 L 325.78515625 273" stroke-miterlimit="10"/></g><g transform="translate(-142,-222) scale(1,1)"><path fill="none" stroke="#000000" d="M 152 356 L 325.78515625 356" stroke-miterlimit="10"/></g><g transform="translate(-142,-222) scale(1,1)"><g><path fill="none" stroke="none"/><text fill="#000000" stroke="none" font-family="Arial" font-size="13px" font-style="normal" font-weight="bold" text-decoration="none" x="229.13623046875" y="267.5">Bet</text></g></g><g transform="translate(-142,-222) scale(1,1)"><g><path fill="none" stroke="none"/><text fill="#000000" stroke="none" font-family="Arial" font-size="13px" font-style="normal" font-weight="normal" text-decoration="none" x="157" y="290.5">#type: String</text></g></g><g transform="translate(-142,-222) scale(1,1)"><g><path fill="none" stroke="none"/><text fill="#000000" stroke="none" font-family="Arial" font-size="13px" font-style="normal" font-weight="normal" text-decoration="none" x="157" y="305.5">#pot: Number = 0</text></g></g><g transform="translate(-142,-222) scale(1,1)"><g><path fill="none" stroke="none"/><text fill="#000000" stroke="none" font-family="Arial" font-size="13px" font-style="normal" font-weight="normal" text-decoration="none" x="157" y="320.5">#bet_id: Number {id, unique}</text></g></g><g transform="translate(-142,-222) scale(1,1)"><g><path fill="none" stroke="none"/><text fill="#000000" stroke="none" font-family="Arial" font-size="13px" font-style="normal" font-weight="normal" text-decoration="none" x="157" y="335.5">-participants: Array&lt;User&gt;</text></g></g><g transform="translate(-142,-222) scale(1,1)"><g><path fill="none" stroke="none"/><text fill="#000000" stroke="none" font-family="Arial" font-size="13px" font-style="normal" font-weight="normal" text-decoration="none" x="157" y="350.5">+votes</text></g></g><g transform="translate(-142,-222) scale(1,1)"><g><path fill="none" stroke="none"/><text fill="#000000" stroke="none" font-family="Arial" font-size="13px" font-style="normal" font-weight="normal" text-decoration="none" x="157" y="373.5">+addParticipant()()</text></g></g><g transform="translate(-142,-222) scale(1,1)"><g><path fill="none" stroke="none"/><text fill="#000000" stroke="none" font-family="Arial" font-size="13px" font-style="normal" font-weight="normal" text-decoration="none" x="157" y="388.5">+addVote()</text></g></g></g></svg>