<svg version="1.1" xmlns="http://www.w3.org/2000/svg" xmlns:xlink="http://www.w3.org/1999/xlink" width="389.57080078125" height="150"><defs/><g><g transform="translate(-254,-222) scale(1,1)"><rect fill="#C0C0C0" stroke="none" x="271" y="239" width="85.578125" height="130" opacity="0.2"/></g><g transform="translate(-254,-222) scale(1,1)"><rect fill="#ffffff" stroke="none" x="264" y="232" width="85.578125" height="130"/></g><g transform="translate(-254,-222) scale(1,1)"><path fill="none" stroke="#000000" d="M 264 232 L 349.578125 232 L 349.578125 362 L 264 362 L 264 232 Z Z" stroke-miterlimit="10"/></g><g transform="translate(-254,-222) scale(1,1)"><path fill="none" stroke="#000000" d="M 264 257 L 349.578125 257" stroke-miterlimit="10"/></g><g transform="translate(-254,-222) scale(1,1)"><path fill="none" stroke="#000000" d="M 264 310 L 349.578125 310" stroke-miterlimit="10"/></g><g transform="translate(-254,-222) scale(1,1)"><g><path fill="none" stroke="none"/><text fill="#000000" stroke="none" font-family="Arial" font-size="13px" font-style="normal" font-weight="bold" text-decoration="none" x="293.0654296875" y="251.5">User</text></g></g><g transform="translate(-254,-222) scale(1,1)"><g><path fill="none" stroke="none"/><text fill="#000000" stroke="none" font-family="Arial" font-size="13px" font-style="normal" font-weight="normal" text-decoration="none" x="269" y="274.5">+userName</text></g></g><g transform="translate(-254,-222) scale(1,1)"><g><path fill="none" stroke="none"/><text fill="#000000" stroke="none" font-family="Arial" font-size="13px" font-style="normal" font-weight="normal" text-decoration="none" x="269" y="289.5">+email</text></g></g><g transform="translate(-254,-222) scale(1,1)"><g><path fill="none" stroke="none"/><text fill="#000000" stroke="none" font-family="Arial" font-size="13px" font-style="normal" font-weight="normal" text-decoration="none" x="269" y="304.5">+address</text></g></g><g transform="translate(-254,-222) scale(1,1)"><g><path fill="none" stroke="none"/><text fill="#000000" stroke="none" font-family="Arial" font-size="13px" font-style="normal" font-weight="normal" text-decoration="none" x="269" y="327.5">+betting()</text></g></g><g transform="translate(-254,-222) scale(1,1)"><g><path fill="none" stroke="none"/><text fill="#000000" stroke="none" font-family="Arial" font-size="13px" font-style="normal" font-weight="normal" text-decoration="none" x="269" y="342.5">+createBet()</text></g></g><g transform="translate(-254,-222) scale(1,1)"><g><path fill="none" stroke="none"/><text fill="#000000" stroke="none" font-family="Arial" font-size="13px" font-style="normal" font-weight="normal" text-decoration="none" x="269" y="357.5">-initAccount()</text></g></g><g transform="translate(-254,-222) scale(1,1)"><rect fill="#C0C0C0" stroke="none" x="551" y="255" width="89.57080078125" height="100" opacity="0.2"/></g><g transform="translate(-254,-222) scale(1,1)"><rect fill="#ffffff" stroke="none" x="544" y="248" width="89.57080078125" height="100"/></g><g transform="translate(-254,-222) scale(1,1)"><path fill="none" stroke="#000000" d="M 544 248 L 633.57080078125 248 L 633.57080078125 348 L 544 348 L 544 248 Z Z" stroke-miterlimit="10"/></g><g transform="translate(-254,-222) scale(1,1)"><path fill="none" stroke="#000000" d="M 544 273 L 633.57080078125 273" stroke-miterlimit="10"/></g><g transform="translate(-254,-222) scale(1,1)"><path fill="none" stroke="#000000" d="M 544 296 L 633.57080078125 296" stroke-miterlimit="10"/></g><g transform="translate(-254,-222) scale(1,1)"><g><path fill="none" stroke="none"/><text fill="#000000" stroke="none" font-family="Arial" font-size="13px" font-style="normal" font-weight="bold" text-decoration="none" x="565.299072265625" y="267.5">Account</text></g></g><g transform="translate(-254,-222) scale(1,1)"><g><path fill="none" stroke="none"/><text fill="#000000" stroke="none" font-family="Arial" font-size="13px" font-style="normal" font-weight="normal" text-decoration="none" x="549" y="290.5">-funds</text></g></g><g transform="translate(-254,-222) scale(1,1)"><g><path fill="none" stroke="none"/><text fill="#000000" stroke="none" font-family="Arial" font-size="13px" font-style="normal" font-weight="normal" text-decoration="none" x="549" y="313.5">+addFunds()</text></g></g><g transform="translate(-254,-222) scale(1,1)"><g><path fill="none" stroke="none"/><text fill="#000000" stroke="none" font-family="Arial" font-size="13px" font-style="normal" font-weight="normal" text-decoration="none" x="549" y="328.5">+getFunds()</text></g></g><g transform="translate(-254,-222) scale(1,1)"><g><path fill="none" stroke="none"/><text fill="#000000" stroke="none" font-family="Arial" font-size="13px" font-style="normal" font-weight="normal" text-decoration="none" x="549" y="343.5">+Operation1()</text></g></g><g transform="translate(-254,-222) scale(1,1)"><path fill="none" stroke="#000000" d="M 543 298 L 351 297" stroke-miterlimit="10" stroke-dasharray="3"/></g><g transform="translate(-254,-222) scale(1,1)"><path fill="none" stroke="#000000" d="M 361.1844612946099 292.84346921837533 L 351 297 L 361.140612746048 301.2623905422531" stroke-miterlimit="10"/></g></g></svg>