<svg version="1.1" xmlns="http://www.w3.org/2000/svg" xmlns:xlink="http://www.w3.org/1999/xlink" width="755.025390625" height="531"><defs/><g><g transform="translate(-62,-70) scale(1,1)"><rect fill="#C0C0C0" stroke="none" x="223" y="87" width="488" height="511" opacity="0.2"/></g><g transform="translate(-62,-70) scale(1,1)"><rect fill="#ffffff" stroke="none" x="216" y="80" width="488" height="511"/></g><g transform="translate(-62,-70) scale(1,1)"><path fill="none" stroke="#000000" d="M 216 80 L 704 80 L 704 591 L 216 591 L 216 80 Z Z" stroke-miterlimit="10"/></g><g transform="translate(-62,-70) scale(1,1)"><g><path fill="none" stroke="none"/><text fill="#000000" stroke="none" font-family="Arial" font-size="13px" font-style="normal" font-weight="bold" text-decoration="none" x="446.99365234375" y="99.5">AKB</text></g></g><g transform="translate(-62,-70) scale(1,1)"><path fill="#ffffff" stroke="none" d="M 88.40935031960227 345.68 C 88.40935031960227 340.886167936 92.29519264454773 337 97.088623046875 337 C 101.88205344920227 337 105.76789577414773 340.886167936 105.76789577414773 345.68 C 105.76789577414773 350.473832064 101.88205344920227 354.36 97.088623046875 354.36 C 92.29519264454773 354.36 88.40935031960227 350.473832064 88.40935031960227 345.68 Z"/></g><g transform="translate(-62,-70) scale(1,1)"><path fill="none" stroke="#000000" d="M 88.40935031960227 345.68 C 88.40935031960227 340.886167936 92.29519264454773 337 97.088623046875 337 C 101.88205344920227 337 105.76789577414773 340.886167936 105.76789577414773 345.68 C 105.76789577414773 350.473832064 101.88205344920227 354.36 97.088623046875 354.36 C 92.29519264454773 354.36 88.40935031960227 350.473832064 88.40935031960227 345.68 Z" stroke-miterlimit="10"/></g><g transform="translate(-62,-70) scale(1,1)"><path fill="none" stroke="#000000" d="M 97.088623046875 354.36 L 97.088623046875 371.64" stroke-miterlimit="10"/></g><g transform="translate(-62,-70) scale(1,1)"><path fill="none" stroke="#000000" d="M 87.89880486505682 360.84 L 106.27844122869318 360.84" stroke-miterlimit="10"/></g><g transform="translate(-62,-70) scale(1,1)"><path fill="none" stroke="#000000" d="M 97.088623046875 371.64 L 84.32498668323863 389" stroke-miterlimit="10"/></g><g transform="translate(-62,-70) scale(1,1)"><path fill="none" stroke="#000000" d="M 97.088623046875 371.64 L 109.85225941051137 389" stroke-miterlimit="10"/></g><g transform="translate(-62,-70) scale(1,1)"><g><path fill="none" stroke="none"/><text fill="#000000" stroke="none" font-family="Arial" font-size="13px" font-style="normal" font-weight="bold" text-decoration="none" x="80.470458984375" y="409.5">Client</text></g></g><g transform="translate(-62,-70) scale(1,1)"><path fill="#C0C0C0" stroke="none" d="M 559 480 C 559 470.6111584 581.6096176 463 609.5 463 C 637.3903824 463 660 470.6111584 660 480 C 660 489.3888416 637.3903824 497 609.5 497 C 581.6096176 497 559 489.3888416 559 480 Z" opacity="0.2"/></g><g transform="translate(-62,-70) scale(1,1)"><path fill="#ffffff" stroke="none" d="M 552 473 C 552 463.6111584 574.6096176 456 602.5 456 C 630.3903824 456 653 463.6111584 653 473 C 653 482.3888416 630.3903824 490 602.5 490 C 574.6096176 490 552 482.3888416 552 473 Z"/></g><g transform="translate(-62,-70) scale(1,1)"><path fill="none" stroke="#000000" d="M 552 473 C 552 463.6111584 574.6096176 456 602.5 456 C 630.3903824 456 653 463.6111584 653 473 C 653 482.3888416 630.3903824 490 602.5 490 C 574.6096176 490 552 482.3888416 552 473 Z" stroke-miterlimit="10"/></g><g transform="translate(-62,-70) scale(1,1)"><g><path fill="none" stroke="none"/><text fill="#000000" stroke="none" font-family="Arial" font-size="13px" font-style="normal" font-weight="bold" text-decoration="none" x="582.263671875" y="480">Betting</text></g></g><g transform="translate(-62,-70) scale(1,1)"><path fill="none" stroke="#000000" d="M 123 380 L 551 463" stroke-miterlimit="10"/></g><g transform="translate(-62,-70) scale(1,1)"><path fill="#C0C0C0" stroke="none" d="M 551 392 C 551 382.6111584 574.505048 375 603.5 375 C 632.494952 375 656 382.6111584 656 392 C 656 401.3888416 632.494952 409 603.5 409 C 574.505048 409 551 401.3888416 551 392 Z" opacity="0.2"/></g><g transform="translate(-62,-70) scale(1,1)"><path fill="#ffffff" stroke="none" d="M 544 385 C 544 375.6111584 567.505048 368 596.5 368 C 625.494952 368 649 375.6111584 649 385 C 649 394.3888416 625.494952 402 596.5 402 C 567.505048 402 544 394.3888416 544 385 Z"/></g><g transform="translate(-62,-70) scale(1,1)"><path fill="none" stroke="#000000" d="M 544 385 C 544 375.6111584 567.505048 368 596.5 368 C 625.494952 368 649 375.6111584 649 385 C 649 394.3888416 625.494952 402 596.5 402 C 567.505048 402 544 394.3888416 544 385 Z" stroke-miterlimit="10"/></g><g transform="translate(-62,-70) scale(1,1)"><g><path fill="none" stroke="none"/><text fill="#000000" stroke="none" font-family="Arial" font-size="13px" font-style="normal" font-weight="bold" text-decoration="none" x="565.42822265625" y="392">Create Bet</text></g></g><g transform="translate(-62,-70) scale(1,1)"><path fill="none" stroke="#000000" d="M 123 376 L 543 384" stroke-miterlimit="10"/></g><g transform="translate(-62,-70) scale(1,1)"><path fill="#C0C0C0" stroke="none" d="M 375 344 C 375 334.6111584 397.6096176 327 425.5 327 C 453.3903824 327 476 334.6111584 476 344 C 476 353.3888416 453.3903824 361 425.5 361 C 397.6096176 361 375 353.3888416 375 344 Z" opacity="0.2"/></g><g transform="translate(-62,-70) scale(1,1)"><path fill="#ffffff" stroke="none" d="M 368 337 C 368 327.6111584 390.6096176 320 418.5 320 C 446.3903824 320 469 327.6111584 469 337 C 469 346.3888416 446.3903824 354 418.5 354 C 390.6096176 354 368 346.3888416 368 337 Z"/></g><g transform="translate(-62,-70) scale(1,1)"><path fill="none" stroke="#000000" d="M 368 337 C 368 327.6111584 390.6096176 320 418.5 320 C 446.3903824 320 469 327.6111584 469 337 C 469 346.3888416 446.3903824 354 418.5 354 C 390.6096176 354 368 346.3888416 368 337 Z" stroke-miterlimit="10"/></g><g transform="translate(-62,-70) scale(1,1)"><g><path fill="none" stroke="none"/><text fill="#000000" stroke="none" font-family="Arial" font-size="13px" font-style="normal" font-weight="bold" text-decoration="none" x="400.42822265625" y="344">Log In</text></g></g><g transform="translate(-62,-70) scale(1,1)"><path fill="none" stroke="#000000" d="M 123 372 L 367 343" stroke-miterlimit="10"/></g><g transform="translate(-62,-70) scale(1,1)"><path fill="#C0C0C0" stroke="none" d="M 559 256 C 559 246.6111584 581.6096176 239 609.5 239 C 637.3903824 239 660 246.6111584 660 256 C 660 265.3888416 637.3903824 273 609.5 273 C 581.6096176 273 559 265.3888416 559 256 Z" opacity="0.2"/></g><g transform="translate(-62,-70) scale(1,1)"><path fill="#ffffff" stroke="none" d="M 552 249 C 552 239.6111584 574.6096176 232 602.5 232 C 630.3903824 232 653 239.6111584 653 249 C 653 258.3888416 630.3903824 266 602.5 266 C 574.6096176 266 552 258.3888416 552 249 Z"/></g><g transform="translate(-62,-70) scale(1,1)"><path fill="none" stroke="#000000" d="M 552 249 C 552 239.6111584 574.6096176 232 602.5 232 C 630.3903824 232 653 239.6111584 653 249 C 653 258.3888416 630.3903824 266 602.5 266 C 574.6096176 266 552 258.3888416 552 249 Z" stroke-miterlimit="10"/></g><g transform="translate(-62,-70) scale(1,1)"><g><path fill="none" stroke="none"/><text fill="#000000" stroke="none" font-family="Arial" font-size="13px" font-style="normal" font-weight="bold" text-decoration="none" x="578.29638671875" y="256">Register</text></g></g><g transform="translate(-62,-70) scale(1,1)"><path fill="none" stroke="#000000" d="M 123 368 L 551 262" stroke-miterlimit="10"/></g><g transform="translate(-62,-70) scale(1,1)"><path fill="#C0C0C0" stroke="none" d="M 423 208 C 423 198.6111584 445.6096176 191 473.5 191 C 501.3903824 191 524 198.6111584 524 208 C 524 217.3888416 501.3903824 225 473.5 225 C 445.6096176 225 423 217.3888416 423 208 Z" opacity="0.2"/></g><g transform="translate(-62,-70) scale(1,1)"><path fill="#ffffff" stroke="none" d="M 416 201 C 416 191.6111584 438.6096176 184 466.5 184 C 494.3903824 184 517 191.6111584 517 201 C 517 210.3888416 494.3903824 218 466.5 218 C 438.6096176 218 416 210.3888416 416 201 Z"/></g><g transform="translate(-62,-70) scale(1,1)"><path fill="none" stroke="#000000" d="M 416 201 C 416 191.6111584 438.6096176 184 466.5 184 C 494.3903824 184 517 191.6111584 517 201 C 517 210.3888416 494.3903824 218 466.5 218 C 438.6096176 218 416 210.3888416 416 201 Z" stroke-miterlimit="10"/></g><g transform="translate(-62,-70) scale(1,1)"><g><path fill="none" stroke="none"/><text fill="#000000" stroke="none" font-family="Arial" font-size="13px" font-style="normal" font-weight="bold" text-decoration="none" x="442.2900390625" y="208">Chatting</text></g></g><g transform="translate(-62,-70) scale(1,1)"><path fill="none" stroke="#000000" d="M 123 363 L 428 219" stroke-miterlimit="10"/></g><g transform="translate(-62,-70) scale(1,1)"><path fill="#C0C0C0" stroke="none" d="M 263 168 C 263 158.6111584 289.1913392 151 321.5 151 C 353.8086608 151 380 158.6111584 380 168 C 380 177.3888416 353.8086608 185 321.5 185 C 289.1913392 185 263 177.3888416 263 168 Z" opacity="0.2"/></g><g transform="translate(-62,-70) scale(1,1)"><path fill="#ffffff" stroke="none" d="M 256 161 C 256 151.6111584 282.1913392 144 314.5 144 C 346.8086608 144 373 151.6111584 373 161 C 373 170.3888416 346.8086608 178 314.5 178 C 282.1913392 178 256 170.3888416 256 161 Z"/></g><g transform="translate(-62,-70) scale(1,1)"><path fill="none" stroke="#000000" d="M 256 161 C 256 151.6111584 282.1913392 144 314.5 144 C 346.8086608 144 373 151.6111584 373 161 C 373 170.3888416 346.8086608 178 314.5 178 C 282.1913392 178 256 170.3888416 256 161 Z" stroke-miterlimit="10"/></g><g transform="translate(-62,-70) scale(1,1)"><g><path fill="none" stroke="none"/><text fill="#000000" stroke="none" font-family="Arial" font-size="13px" font-style="normal" font-weight="bold" text-decoration="none" x="280.181396484375" y="168">View Profile</text></g></g><g transform="translate(-62,-70) scale(1,1)"><path fill="none" stroke="#000000" d="M 123 349 L 296 179" stroke-miterlimit="10"/></g><g transform="translate(-62,-70) scale(1,1)"><path fill="#ffffff" stroke="none" d="M 754.8334225852273 161.68 C 754.8334225852273 156.886167936 758.7192649101727 153 763.5126953125 153 C 768.3061257148273 153 772.1919680397727 156.886167936 772.1919680397727 161.68 C 772.1919680397727 166.47383206400002 768.3061257148273 170.36 763.5126953125 170.36 C 758.7192649101727 170.36 754.8334225852273 166.47383206400002 754.8334225852273 161.68 Z"/></g><g transform="translate(-62,-70) scale(1,1)"><path fill="none" stroke="#000000" d="M 754.8334225852273 161.68 C 754.8334225852273 156.886167936 758.7192649101727 153 763.5126953125 153 C 768.3061257148273 153 772.1919680397727 156.886167936 772.1919680397727 161.68 C 772.1919680397727 166.47383206400002 768.3061257148273 170.36 763.5126953125 170.36 C 758.7192649101727 170.36 754.8334225852273 166.47383206400002 754.8334225852273 161.68 Z" stroke-miterlimit="10"/></g><g transform="translate(-62,-70) scale(1,1)"><path fill="none" stroke="#000000" d="M 763.5126953125 170.36 L 763.5126953125 187.64" stroke-miterlimit="10"/></g><g transform="translate(-62,-70) scale(1,1)"><path fill="none" stroke="#000000" d="M 754.3228771306818 176.84 L 772.7025134943182 176.84" stroke-miterlimit="10"/></g><g transform="translate(-62,-70) scale(1,1)"><path fill="none" stroke="#000000" d="M 763.5126953125 187.64 L 750.7490589488636 205" stroke-miterlimit="10"/></g><g transform="translate(-62,-70) scale(1,1)"><path fill="none" stroke="#000000" d="M 763.5126953125 187.64 L 776.2763316761364 205" stroke-miterlimit="10"/></g><g transform="translate(-62,-70) scale(1,1)"><g><path fill="none" stroke="none"/><text fill="#000000" stroke="none" font-family="Arial" font-size="13px" font-style="normal" font-weight="bold" text-decoration="none" x="727.391357421875" y="225.5">MailProvider</text></g></g><g transform="translate(-62,-70) scale(1,1)"><path fill="#C0C0C0" stroke="none" d="M 559 184 C 559 174.6111584 589.220776 167 626.5 167 C 663.779224 167 694 174.6111584 694 184 C 694 193.3888416 663.779224 201 626.5 201 C 589.220776 201 559 193.3888416 559 184 Z" opacity="0.2"/></g><g transform="translate(-62,-70) scale(1,1)"><path fill="#ffffff" stroke="none" d="M 552 177 C 552 167.6111584 582.220776 160 619.5 160 C 656.779224 160 687 167.6111584 687 177 C 687 186.3888416 656.779224 194 619.5 194 C 582.220776 194 552 186.3888416 552 177 Z"/></g><g transform="translate(-62,-70) scale(1,1)"><path fill="none" stroke="#000000" d="M 552 177 C 552 167.6111584 582.220776 160 619.5 160 C 656.779224 160 687 167.6111584 687 177 C 687 186.3888416 656.779224 194 619.5 194 C 582.220776 194 552 186.3888416 552 177 Z" stroke-miterlimit="10"/></g><g transform="translate(-62,-70) scale(1,1)"><g><path fill="none" stroke="none"/><text fill="#000000" stroke="none" font-family="Arial" font-size="13px" font-style="normal" font-weight="bold" text-decoration="none" x="579.408203125" y="184">Confirm email</text></g></g><g transform="translate(-62,-70) scale(1,1)"><path fill="none" stroke="#000000" d="M 688 184 L 719 187" stroke-miterlimit="10"/></g><g transform="translate(-62,-70) scale(1,1)"><path fill="none" stroke="#000000" d="M 460 219 L 424 319" stroke-miterlimit="10" stroke-dasharray="3"/></g><g transform="translate(-62,-70) scale(1,1)"><path fill="none" stroke="#000000" d="M 423.48161355732987 308.0122215395442 L 424 319 L 431.4029780906765 310.86391277154905" stroke-miterlimit="10"/></g><g transform="translate(-62,-70) scale(1,1)"><path fill="none" stroke="#000000" d="M 325 179 L 407 319" stroke-miterlimit="10" stroke-dasharray="3"/></g><g transform="translate(-62,-70) scale(1,1)"><path fill="none" stroke="#000000" d="M 398.2314296757642 312.3583003328266 L 407 319 L 405.4960753356845 308.10329358915897" stroke-miterlimit="10"/></g><g transform="translate(-62,-70) scale(1,1)"><path fill="none" stroke="#000000" d="M 543 371 L 470 351" stroke-miterlimit="10" stroke-dasharray="3"/></g><g transform="translate(-62,-70) scale(1,1)"><path fill="none" stroke="#000000" d="M 480.9137785262554 349.62543160233963 L 470 351 L 478.6891734394737 357.74524016909294" stroke-miterlimit="10"/></g><g transform="translate(-62,-70) scale(1,1)"><path fill="none" stroke="#000000" d="M 578 455 L 442 355" stroke-miterlimit="10" stroke-dasharray="3"/></g><g transform="translate(-62,-70) scale(1,1)"><path fill="none" stroke="#000000" d="M 452.6812474100512 357.6288692940645 L 442 355 L 447.69389117049235 364.41167377986454" stroke-miterlimit="10"/></g><g transform="translate(-62,-70) scale(1,1)"><path fill="#C0C0C0" stroke="none" d="M 375 568 C 375 558.6111584 410.81721600000003 551 455 551 C 499.18278399999997 551 535 558.6111584 535 568 C 535 577.3888416 499.18278399999997 585 455 585 C 410.81721600000003 585 375 577.3888416 375 568 Z" opacity="0.2"/></g><g transform="translate(-62,-70) scale(1,1)"><path fill="#ffffff" stroke="none" d="M 368 561 C 368 551.6111584 403.81721600000003 544 448 544 C 492.18278399999997 544 528 551.6111584 528 561 C 528 570.3888416 492.18278399999997 578 448 578 C 403.81721600000003 578 368 570.3888416 368 561 Z"/></g><g transform="translate(-62,-70) scale(1,1)"><path fill="none" stroke="#000000" d="M 368 561 C 368 551.6111584 403.81721600000003 544 448 544 C 492.18278399999997 544 528 551.6111584 528 561 C 528 570.3888416 492.18278399999997 578 448 578 C 403.81721600000003 578 368 570.3888416 368 561 Z" stroke-miterlimit="10"/></g><g transform="translate(-62,-70) scale(1,1)"><g><path fill="none" stroke="none"/><text fill="#000000" stroke="none" font-family="Arial" font-size="13px" font-style="normal" font-weight="bold" text-decoration="none" x="399.589599609375" y="568">View Public Bets</text></g></g><g transform="translate(-62,-70) scale(1,1)"><path fill="none" stroke="#000000" d="M 123 389 L 414 543" stroke-miterlimit="10"/></g><g transform="translate(-62,-70) scale(1,1)"><path fill="none" stroke="#000000" d="M 571 491 L 480 543" stroke-miterlimit="10" stroke-dasharray="3"/></g><g transform="translate(-62,-70) scale(1,1)"><path fill="none" stroke="#000000" d="M 486.7351670803088 534.3030163619607 L 480 543 L 490.91217842123683 541.6127862085847" stroke-miterlimit="10"/></g><g transform="translate(-62,-70) scale(1,1)"><g><path fill="none" stroke="none"/><text fill="#000000" stroke="none" font-family="Arial" font-size="13px" font-style="normal" font-weight="normal" text-decoration="none" x="513.5" y="535.5">«include»</text></g></g><g transform="translate(-62,-70) scale(1,1)"><path fill="none" stroke="#000000" d="M 606 231 L 615 195" stroke-miterlimit="10" stroke-dasharray="3"/></g><g transform="translate(-62,-70) scale(1,1)"><path fill="none" stroke="#000000" d="M 616.6190213815926 205.8802008145965 L 615 195 L 608.4513572211376 203.83828477448273" stroke-miterlimit="10"/></g><g transform="translate(-62,-70) scale(1,1)"><g><path fill="none" stroke="none"/><text fill="#000000" stroke="none" font-family="Arial" font-size="13px" font-style="normal" font-weight="normal" text-decoration="none" x="551.5" y="220.5">«include»</text></g></g><g transform="translate(-62,-70) scale(1,1)"><path fill="#C0C0C0" stroke="none" d="M 327 488 C 327 478.6111584 364.1603616 471 410 471 C 455.8396384 471 493 478.6111584 493 488 C 493 497.3888416 455.8396384 505 410 505 C 364.1603616 505 327 497.3888416 327 488 Z" opacity="0.2"/></g><g transform="translate(-62,-70) scale(1,1)"><path fill="#ffffff" stroke="none" d="M 320 481 C 320 471.6111584 357.1603616 464 403 464 C 448.8396384 464 486 471.6111584 486 481 C 486 490.3888416 448.8396384 498 403 498 C 357.1603616 498 320 490.3888416 320 481 Z"/></g><g transform="translate(-62,-70) scale(1,1)"><path fill="none" stroke="#000000" d="M 320 481 C 320 471.6111584 357.1603616 464 403 464 C 448.8396384 464 486 471.6111584 486 481 C 486 490.3888416 448.8396384 498 403 498 C 357.1603616 498 320 490.3888416 320 481 Z" stroke-miterlimit="10"/></g><g transform="translate(-62,-70) scale(1,1)"><g><path fill="none" stroke="none"/><text fill="#000000" stroke="none" font-family="Arial" font-size="13px" font-style="normal" font-weight="bold" text-decoration="none" x="352.063232421875" y="488">View Private Bets</text></g></g><g transform="translate(-62,-70) scale(1,1)"><path fill="none" stroke="#000000" d="M 123 384 L 351 463" stroke-miterlimit="10"/></g><g transform="translate(-62,-70) scale(1,1)"><path fill="none" stroke="#000000" d="M 405 463 L 416 355" stroke-miterlimit="10" stroke-dasharray="3"/></g><g transform="translate(-62,-70) scale(1,1)"><path fill="none" stroke="#000000" d="M 419.1580920583443 365.53690915548873 L 416 355 L 410.7823883934739 364.68382822665933" stroke-miterlimit="10"/></g><g transform="translate(-62,-70) scale(1,1)"><path fill="none" stroke="#000000" d="M 551 475 L 487 478" stroke-miterlimit="10" stroke-dasharray="3"/></g><g transform="translate(-62,-70) scale(1,1)"><path fill="none" stroke="#000000" d="M 496.95442345744505 473.319246467729 L 487 478 L 497.34863289329354 481.7290477658301" stroke-miterlimit="10"/></g><g transform="translate(-62,-70) scale(1,1)"><g><path fill="none" stroke="none"/><text fill="#000000" stroke="none" font-family="Arial" font-size="13px" font-style="normal" font-weight="normal" text-decoration="none" x="493.5" y="494.5">«include»</text></g></g></g></svg>