<svg version="1.1" xmlns="http://www.w3.org/2000/svg" xmlns:xlink="http://www.w3.org/1999/xlink" width="794.68994140625" height="550"><defs/><g><g transform="translate(-38,-46) scale(1,1)"><rect fill="#C0C0C0" stroke="none" x="335" y="199" width="250.0126953125" height="136" opacity="0.2"/></g><g transform="translate(-38,-46) scale(1,1)"><rect fill="#ffffff" stroke="none" x="328" y="192" width="250.0126953125" height="136"/></g><g transform="translate(-38,-46) scale(1,1)"><path fill="none" stroke="#000000" d="M 328 192 L 578.0126953125 192 L 578.0126953125 328 L 328 328 L 328 192 Z Z" stroke-miterlimit="10"/></g><g transform="translate(-38,-46) scale(1,1)"><path fill="none" stroke="#000000" d="M 328 215 L 578.0126953125 215" stroke-miterlimit="10"/></g><g transform="translate(-38,-46) scale(1,1)"><path fill="none" stroke="#000000" d="M 356.05908203125 215 L 356.05908203125 328" stroke-miterlimit="10"/></g><g transform="translate(-38,-46) scale(1,1)"><path fill="none" stroke="#000000" d="M 474.4072265625 215 L 474.4072265625 328" stroke-miterlimit="10"/></g><g transform="translate(-38,-46) scale(1,1)"><g><path fill="none" stroke="none"/><text fill="#000000" stroke="none" font-family="Arial" font-size="13px" font-style="normal" font-weight="bold" text-decoration="none" x="439.28271484375" y="209.5">User</text></g></g><g transform="translate(-38,-46) scale(1,1)"><g><path fill="none" stroke="none"/><text fill="#000000" stroke="none" font-family="Arial" font-size="13px" font-style="normal" font-weight="normal" text-decoration="none" x="333" y="233">PK</text></g></g><g transform="translate(-38,-46) scale(1,1)"><g><path fill="none" stroke="none"/><text fill="#000000" stroke="none" font-family="Arial" font-size="13px" font-style="normal" font-weight="normal" text-decoration="none" x="361.05908203125" y="233">UserName</text></g></g><g transform="translate(-38,-46) scale(1,1)"><g><path fill="none" stroke="none"/><text fill="#000000" stroke="none" font-family="Arial" font-size="13px" font-style="normal" font-weight="normal" text-decoration="none" x="479.4072265625" y="233">VARCHAR(50)</text></g></g><g transform="translate(-38,-46) scale(1,1)"><g><path fill="none" stroke="none"/><text fill="#000000" stroke="none" font-family="Arial" font-size="13px" font-style="normal" font-weight="normal" text-decoration="none" x="333" y="248"></text></g></g><g transform="translate(-38,-46) scale(1,1)"><g><path fill="none" stroke="none"/><text fill="#000000" stroke="none" font-family="Arial" font-size="13px" font-style="normal" font-weight="normal" text-decoration="none" x="361.05908203125" y="248">First_Name</text></g></g><g transform="translate(-38,-46) scale(1,1)"><g><path fill="none" stroke="none"/><text fill="#000000" stroke="none" font-family="Arial" font-size="13px" font-style="normal" font-weight="normal" text-decoration="none" x="479.4072265625" y="248">VARCHAR(50)</text></g></g><g transform="translate(-38,-46) scale(1,1)"><g><path fill="none" stroke="none"/><text fill="#000000" stroke="none" font-family="Arial" font-size="13px" font-style="normal" font-weight="normal" text-decoration="none" x="333" y="263"></text></g></g><g transform="translate(-38,-46) scale(1,1)"><g><path fill="none" stroke="none"/><text fill="#000000" stroke="none" font-family="Arial" font-size="13px" font-style="normal" font-weight="normal" text-decoration="none" x="361.05908203125" y="263">Last_Name</text></g></g><g transform="translate(-38,-46) scale(1,1)"><g><path fill="none" stroke="none"/><text fill="#000000" stroke="none" font-family="Arial" font-size="13px" font-style="normal" font-weight="normal" text-decoration="none" x="479.4072265625" y="263">VARCHAR(50)</text></g></g><g transform="translate(-38,-46) scale(1,1)"><g><path fill="none" stroke="none"/><text fill="#000000" stroke="none" font-family="Arial" font-size="13px" font-style="normal" font-weight="normal" text-decoration="none" x="333" y="278">FK</text></g></g><g transform="translate(-38,-46) scale(1,1)"><g><path fill="none" stroke="none"/><text fill="#000000" stroke="none" font-family="Arial" font-size="13px" font-style="normal" font-weight="normal" text-decoration="none" x="361.05908203125" y="278">Account_Number</text></g></g><g transform="translate(-38,-46) scale(1,1)"><g><path fill="none" stroke="none"/><text fill="#000000" stroke="none" font-family="Arial" font-size="13px" font-style="normal" font-weight="normal" text-decoration="none" x="479.4072265625" y="278">INTEGER(50)</text></g></g><g transform="translate(-38,-46) scale(1,1)"><g><path fill="none" stroke="none"/><text fill="#000000" stroke="none" font-family="Arial" font-size="13px" font-style="normal" font-weight="normal" text-decoration="none" x="333" y="293"></text></g></g><g transform="translate(-38,-46) scale(1,1)"><g><path fill="none" stroke="none"/><text fill="#000000" stroke="none" font-family="Arial" font-size="13px" font-style="normal" font-weight="normal" text-decoration="none" x="361.05908203125" y="293">Mail</text></g></g><g transform="translate(-38,-46) scale(1,1)"><g><path fill="none" stroke="none"/><text fill="#000000" stroke="none" font-family="Arial" font-size="13px" font-style="normal" font-weight="normal" text-decoration="none" x="479.4072265625" y="293">VARCHAR(50)</text></g></g><g transform="translate(-38,-46) scale(1,1)"><g><path fill="none" stroke="none"/><text fill="#000000" stroke="none" font-family="Arial" font-size="13px" font-style="normal" font-weight="normal" text-decoration="none" x="333" y="308">FK</text></g></g><g transform="translate(-38,-46) scale(1,1)"><g><path fill="none" stroke="none"/><text fill="#000000" stroke="none" font-family="Arial" font-size="13px" font-style="normal" font-weight="normal" text-decoration="none" x="361.05908203125" y="308">User_Type</text></g></g><g transform="translate(-38,-46) scale(1,1)"><g><path fill="none" stroke="none"/><text fill="#000000" stroke="none" font-family="Arial" font-size="13px" font-style="normal" font-weight="normal" text-decoration="none" x="479.4072265625" y="308">VARCHAR(50)</text></g></g><g transform="translate(-38,-46) scale(1,1)"><g><path fill="none" stroke="none"/><text fill="#000000" stroke="none" font-family="Arial" font-size="13px" font-style="normal" font-weight="normal" text-decoration="none" x="333" y="323"></text></g></g><g transform="translate(-38,-46) scale(1,1)"><g><path fill="none" stroke="none"/><text fill="#000000" stroke="none" font-family="Arial" font-size="13px" font-style="normal" font-weight="normal" text-decoration="none" x="361.05908203125" y="323">Address</text></g></g><g transform="translate(-38,-46) scale(1,1)"><g><path fill="none" stroke="none"/><text fill="#000000" stroke="none" font-family="Arial" font-size="13px" font-style="normal" font-weight="normal" text-decoration="none" x="479.4072265625" y="323">VARCHAR(50)</text></g></g><g transform="translate(-38,-46) scale(1,1)"><rect fill="#C0C0C0" stroke="none" x="55" y="279" width="243.525390625" height="75" opacity="0.2"/></g><g transform="translate(-38,-46) scale(1,1)"><rect fill="#ffffff" stroke="none" x="48" y="272" width="243.525390625" height="75"/></g><g transform="translate(-38,-46) scale(1,1)"><path fill="none" stroke="#000000" d="M 48 272 L 291.525390625 272 L 291.525390625 347 L 48 347 L 48 272 Z Z" stroke-miterlimit="10"/></g><g transform="translate(-38,-46) scale(1,1)"><path fill="none" stroke="#000000" d="M 48 295 L 291.525390625 295" stroke-miterlimit="10"/></g><g transform="translate(-38,-46) scale(1,1)"><path fill="none" stroke="#000000" d="M 76.05908203125 295 L 76.05908203125 347" stroke-miterlimit="10"/></g><g transform="translate(-38,-46) scale(1,1)"><path fill="none" stroke="#000000" d="M 194.4072265625 295 L 194.4072265625 347" stroke-miterlimit="10"/></g><g transform="translate(-38,-46) scale(1,1)"><g><path fill="none" stroke="none"/><text fill="#000000" stroke="none" font-family="Arial" font-size="13px" font-style="normal" font-weight="bold" text-decoration="none" x="146.2763671875" y="289.5">Account</text></g></g><g transform="translate(-38,-46) scale(1,1)"><g><path fill="none" stroke="none"/><text fill="#000000" stroke="none" font-family="Arial" font-size="13px" font-style="normal" font-weight="normal" text-decoration="none" x="53" y="313">PK</text></g></g><g transform="translate(-38,-46) scale(1,1)"><g><path fill="none" stroke="none"/><text fill="#000000" stroke="none" font-family="Arial" font-size="13px" font-style="normal" font-weight="normal" text-decoration="none" x="81.05908203125" y="313">Account_Number</text></g></g><g transform="translate(-38,-46) scale(1,1)"><g><path fill="none" stroke="none"/><text fill="#000000" stroke="none" font-family="Arial" font-size="13px" font-style="normal" font-weight="normal" text-decoration="none" x="199.4072265625" y="313">INTEGER(50)</text></g></g><g transform="translate(-38,-46) scale(1,1)"><g><path fill="none" stroke="none"/><text fill="#000000" stroke="none" font-family="Arial" font-size="13px" font-style="normal" font-weight="normal" text-decoration="none" x="53" y="328"></text></g></g><g transform="translate(-38,-46) scale(1,1)"><g><path fill="none" stroke="none"/><text fill="#000000" stroke="none" font-family="Arial" font-size="13px" font-style="normal" font-weight="normal" text-decoration="none" x="81.05908203125" y="328">Funds</text></g></g><g transform="translate(-38,-46) scale(1,1)"><g><path fill="none" stroke="none"/><text fill="#000000" stroke="none" font-family="Arial" font-size="13px" font-style="normal" font-weight="normal" text-decoration="none" x="199.4072265625" y="328">DECIMAL(50)</text></g></g><g transform="translate(-38,-46) scale(1,1)"><g><path fill="none" stroke="none"/><text fill="#000000" stroke="none" font-family="Arial" font-size="13px" font-style="normal" font-weight="normal" text-decoration="none" x="53" y="343"></text></g></g><g transform="translate(-38,-46) scale(1,1)"><g><path fill="none" stroke="none"/><text fill="#000000" stroke="none" font-family="Arial" font-size="13px" font-style="normal" font-weight="normal" text-decoration="none" x="81.05908203125" y="343">Account_Type</text></g></g><g transform="translate(-38,-46) scale(1,1)"><g><path fill="none" stroke="none"/><text fill="#000000" stroke="none" font-family="Arial" font-size="13px" font-style="normal" font-weight="normal" text-decoration="none" x="199.4072265625" y="343">VARCHAR(50)</text></g></g><g transform="translate(-38,-46) scale(1,1)"><rect fill="#C0C0C0" stroke="none" x="583" y="63" width="221.1435546875" height="75" opacity="0.2"/></g><g transform="translate(-38,-46) scale(1,1)"><rect fill="#ffffff" stroke="none" x="576" y="56" width="221.1435546875" height="75"/></g><g transform="translate(-38,-46) scale(1,1)"><path fill="none" stroke="#000000" d="M 576 56 L 797.1435546875 56 L 797.1435546875 131 L 576 131 L 576 56 Z Z" stroke-miterlimit="10"/></g><g transform="translate(-38,-46) scale(1,1)"><path fill="none" stroke="#000000" d="M 576 79 L 797.1435546875 79" stroke-miterlimit="10"/></g><g transform="translate(-38,-46) scale(1,1)"><path fill="none" stroke="#000000" d="M 603.3291015625 79 L 603.3291015625 131" stroke-miterlimit="10"/></g><g transform="translate(-38,-46) scale(1,1)"><path fill="none" stroke="#000000" d="M 699.29541015625 79 L 699.29541015625 131" stroke-miterlimit="10"/></g><g transform="translate(-38,-46) scale(1,1)"><g><path fill="none" stroke="none"/><text fill="#000000" stroke="none" font-family="Arial" font-size="13px" font-style="normal" font-weight="bold" text-decoration="none" x="654.052734375" y="73.5">Card_Bank</text></g></g><g transform="translate(-38,-46) scale(1,1)"><g><path fill="none" stroke="none"/><text fill="#000000" stroke="none" font-family="Arial" font-size="13px" font-style="normal" font-weight="normal" text-decoration="none" x="581" y="97"></text></g></g><g transform="translate(-38,-46) scale(1,1)"><g><path fill="none" stroke="none"/><text fill="#000000" stroke="none" font-family="Arial" font-size="13px" font-style="normal" font-weight="normal" text-decoration="none" x="608.3291015625" y="97">Card_Number</text></g></g><g transform="translate(-38,-46) scale(1,1)"><g><path fill="none" stroke="none"/><text fill="#000000" stroke="none" font-family="Arial" font-size="13px" font-style="normal" font-weight="normal" text-decoration="none" x="704.29541015625" y="97">VARCHAR(50)</text></g></g><g transform="translate(-38,-46) scale(1,1)"><g><path fill="none" stroke="none"/><text fill="#000000" stroke="none" font-family="Arial" font-size="13px" font-style="normal" font-weight="normal" text-decoration="none" x="581" y="112">FK</text></g></g><g transform="translate(-38,-46) scale(1,1)"><g><path fill="none" stroke="none"/><text fill="#000000" stroke="none" font-family="Arial" font-size="13px" font-style="normal" font-weight="normal" text-decoration="none" x="608.3291015625" y="112">UserName</text></g></g><g transform="translate(-38,-46) scale(1,1)"><g><path fill="none" stroke="none"/><text fill="#000000" stroke="none" font-family="Arial" font-size="13px" font-style="normal" font-weight="normal" text-decoration="none" x="704.29541015625" y="112">VARCHAR(50)</text></g></g><g transform="translate(-38,-46) scale(1,1)"><g><path fill="none" stroke="none"/><text fill="#000000" stroke="none" font-family="Arial" font-size="13px" font-style="normal" font-weight="normal" text-decoration="none" x="581" y="127"></text></g></g><g transform="translate(-38,-46) scale(1,1)"><g><path fill="none" stroke="none"/><text fill="#000000" stroke="none" font-family="Arial" font-size="13px" font-style="normal" font-weight="normal" text-decoration="none" x="608.3291015625" y="127">Verified</text></g></g><g transform="translate(-38,-46) scale(1,1)"><g><path fill="none" stroke="none"/><text fill="#000000" stroke="none" font-family="Arial" font-size="13px" font-style="normal" font-weight="normal" text-decoration="none" x="704.29541015625" y="127">BOOLEAN</text></g></g><g transform="translate(-38,-46) scale(1,1)"><rect fill="#C0C0C0" stroke="none" x="623" y="399" width="206.68994140625" height="75" opacity="0.2"/></g><g transform="translate(-38,-46) scale(1,1)"><rect fill="#ffffff" stroke="none" x="616" y="392" width="206.68994140625" height="75"/></g><g transform="translate(-38,-46) scale(1,1)"><path fill="none" stroke="#000000" d="M 616 392 L 822.68994140625 392 L 822.68994140625 467 L 616 467 L 616 392 Z Z" stroke-miterlimit="10"/></g><g transform="translate(-38,-46) scale(1,1)"><path fill="none" stroke="#000000" d="M 616 415 L 822.68994140625 415" stroke-miterlimit="10"/></g><g transform="translate(-38,-46) scale(1,1)"><path fill="none" stroke="#000000" d="M 644.05908203125 415 L 644.05908203125 467" stroke-miterlimit="10"/></g><g transform="translate(-38,-46) scale(1,1)"><path fill="none" stroke="#000000" d="M 725.57177734375 415 L 725.57177734375 467" stroke-miterlimit="10"/></g><g transform="translate(-38,-46) scale(1,1)"><g><path fill="none" stroke="none"/><text fill="#000000" stroke="none" font-family="Arial" font-size="13px" font-style="normal" font-weight="bold" text-decoration="none" x="687.555908203125" y="409.5">User_Type</text></g></g><g transform="translate(-38,-46) scale(1,1)"><g><path fill="none" stroke="none"/><text fill="#000000" stroke="none" font-family="Arial" font-size="13px" font-style="normal" font-weight="normal" text-decoration="none" x="621" y="433">PK</text></g></g><g transform="translate(-38,-46) scale(1,1)"><g><path fill="none" stroke="none"/><text fill="#000000" stroke="none" font-family="Arial" font-size="13px" font-style="normal" font-weight="normal" text-decoration="none" x="649.05908203125" y="433">User_Type</text></g></g><g transform="translate(-38,-46) scale(1,1)"><g><path fill="none" stroke="none"/><text fill="#000000" stroke="none" font-family="Arial" font-size="13px" font-style="normal" font-weight="normal" text-decoration="none" x="730.57177734375" y="433">VARCHAR(50)</text></g></g><g transform="translate(-38,-46) scale(1,1)"><g><path fill="none" stroke="none"/><text fill="#000000" stroke="none" font-family="Arial" font-size="13px" font-style="normal" font-weight="normal" text-decoration="none" x="621" y="448"></text></g></g><g transform="translate(-38,-46) scale(1,1)"><g><path fill="none" stroke="none"/><text fill="#000000" stroke="none" font-family="Arial" font-size="13px" font-style="normal" font-weight="normal" text-decoration="none" x="649.05908203125" y="448">Description</text></g></g><g transform="translate(-38,-46) scale(1,1)"><g><path fill="none" stroke="none"/><text fill="#000000" stroke="none" font-family="Arial" font-size="13px" font-style="normal" font-weight="normal" text-decoration="none" x="730.57177734375" y="448">TEXT</text></g></g><g transform="translate(-38,-46) scale(1,1)"><g><path fill="none" stroke="none"/><text fill="#000000" stroke="none" font-family="Arial" font-size="13px" font-style="normal" font-weight="normal" text-decoration="none" x="621" y="463"></text></g></g><g transform="translate(-38,-46) scale(1,1)"><g><path fill="none" stroke="none"/><text fill="#000000" stroke="none" font-family="Arial" font-size="13px" font-style="normal" font-weight="normal" text-decoration="none" x="649.05908203125" y="463">Task</text></g></g><g transform="translate(-38,-46) scale(1,1)"><g><path fill="none" stroke="none"/><text fill="#000000" stroke="none" font-family="Arial" font-size="13px" font-style="normal" font-weight="normal" text-decoration="none" x="730.57177734375" y="463">VARCHAR(50)</text></g></g><g transform="translate(-38,-46) scale(1,1)"><rect fill="#C0C0C0" stroke="none" x="55" y="503" width="193.6962890625" height="90" opacity="0.2"/></g><g transform="translate(-38,-46) scale(1,1)"><rect fill="#ffffff" stroke="none" x="48" y="496" width="193.6962890625" height="90"/></g><g transform="translate(-38,-46) scale(1,1)"><path fill="none" stroke="#000000" d="M 48 496 L 241.6962890625 496 L 241.6962890625 586 L 48 586 L 48 496 Z Z" stroke-miterlimit="10"/></g><g transform="translate(-38,-46) scale(1,1)"><path fill="none" stroke="#000000" d="M 48 519 L 241.6962890625 519" stroke-miterlimit="10"/></g><g transform="translate(-38,-46) scale(1,1)"><path fill="none" stroke="#000000" d="M 76.05908203125 519 L 76.05908203125 586" stroke-miterlimit="10"/></g><g transform="translate(-38,-46) scale(1,1)"><path fill="none" stroke="#000000" d="M 144.578125 519 L 144.578125 586" stroke-miterlimit="10"/></g><g transform="translate(-38,-46) scale(1,1)"><g><path fill="none" stroke="none"/><text fill="#000000" stroke="none" font-family="Arial" font-size="13px" font-style="normal" font-weight="bold" text-decoration="none" x="135.091796875" y="513.5">Bet</text></g></g><g transform="translate(-38,-46) scale(1,1)"><g><path fill="none" stroke="none"/><text fill="#000000" stroke="none" font-family="Arial" font-size="13px" font-style="normal" font-weight="normal" text-decoration="none" x="53" y="537">PK</text></g></g><g transform="translate(-38,-46) scale(1,1)"><g><path fill="none" stroke="none"/><text fill="#000000" stroke="none" font-family="Arial" font-size="13px" font-style="normal" font-weight="normal" text-decoration="none" x="81.05908203125" y="537">Bet_ID</text></g></g><g transform="translate(-38,-46) scale(1,1)"><g><path fill="none" stroke="none"/><text fill="#000000" stroke="none" font-family="Arial" font-size="13px" font-style="normal" font-weight="normal" text-decoration="none" x="149.578125" y="537">INTEGER(50)</text></g></g><g transform="translate(-38,-46) scale(1,1)"><g><path fill="none" stroke="none"/><text fill="#000000" stroke="none" font-family="Arial" font-size="13px" font-style="normal" font-weight="normal" text-decoration="none" x="53" y="552">FK</text></g></g><g transform="translate(-38,-46) scale(1,1)"><g><path fill="none" stroke="none"/><text fill="#000000" stroke="none" font-family="Arial" font-size="13px" font-style="normal" font-weight="normal" text-decoration="none" x="81.05908203125" y="552">Bet_Type</text></g></g><g transform="translate(-38,-46) scale(1,1)"><g><path fill="none" stroke="none"/><text fill="#000000" stroke="none" font-family="Arial" font-size="13px" font-style="normal" font-weight="normal" text-decoration="none" x="149.578125" y="552">VARCHAR(50)</text></g></g><g transform="translate(-38,-46) scale(1,1)"><g><path fill="none" stroke="none"/><text fill="#000000" stroke="none" font-family="Arial" font-size="13px" font-style="normal" font-weight="normal" text-decoration="none" x="53" y="567"></text></g></g><g transform="translate(-38,-46) scale(1,1)"><g><path fill="none" stroke="none"/><text fill="#000000" stroke="none" font-family="Arial" font-size="13px" font-style="normal" font-weight="normal" text-decoration="none" x="81.05908203125" y="567">Pot</text></g></g><g transform="translate(-38,-46) scale(1,1)"><g><path fill="none" stroke="none"/><text fill="#000000" stroke="none" font-family="Arial" font-size="13px" font-style="normal" font-weight="normal" text-decoration="none" x="149.578125" y="567">INTEGER(50)</text></g></g><g transform="translate(-38,-46) scale(1,1)"><g><path fill="none" stroke="none"/><text fill="#000000" stroke="none" font-family="Arial" font-size="13px" font-style="normal" font-weight="normal" text-decoration="none" x="53" y="582"></text></g></g><g transform="translate(-38,-46) scale(1,1)"><g><path fill="none" stroke="none"/><text fill="#000000" stroke="none" font-family="Arial" font-size="13px" font-style="normal" font-weight="normal" text-decoration="none" x="81.05908203125" y="582">Options</text></g></g><g transform="translate(-38,-46) scale(1,1)"><g><path fill="none" stroke="none"/><text fill="#000000" stroke="none" font-family="Arial" font-size="13px" font-style="normal" font-weight="normal" text-decoration="none" x="149.578125" y="582">VARCHAR(50)</text></g></g><g transform="translate(-38,-46) scale(1,1)"><rect fill="#C0C0C0" stroke="none" x="375" y="471" width="205.99169921875" height="90" opacity="0.2"/></g><g transform="translate(-38,-46) scale(1,1)"><rect fill="#ffffff" stroke="none" x="368" y="464" width="205.99169921875" height="90"/></g><g transform="translate(-38,-46) scale(1,1)"><path fill="none" stroke="#000000" d="M 368 464 L 573.99169921875 464 L 573.99169921875 554 L 368 554 L 368 464 Z Z" stroke-miterlimit="10"/></g><g transform="translate(-38,-46) scale(1,1)"><path fill="none" stroke="#000000" d="M 368 487 L 573.99169921875 487" stroke-miterlimit="10"/></g><g transform="translate(-38,-46) scale(1,1)"><path fill="none" stroke="#000000" d="M 395.3291015625 487 L 395.3291015625 554" stroke-miterlimit="10"/></g><g transform="translate(-38,-46) scale(1,1)"><path fill="none" stroke="#000000" d="M 469.6435546875 487 L 469.6435546875 554" stroke-miterlimit="10"/></g><g transform="translate(-38,-46) scale(1,1)"><g><path fill="none" stroke="none"/><text fill="#000000" stroke="none" font-family="Arial" font-size="13px" font-style="normal" font-weight="bold" text-decoration="none" x="433.4208984375" y="481.5">Bet_Register</text></g></g><g transform="translate(-38,-46) scale(1,1)"><g><path fill="none" stroke="none"/><text fill="#000000" stroke="none" font-family="Arial" font-size="13px" font-style="normal" font-weight="normal" text-decoration="none" x="373" y="505">FK</text></g></g><g transform="translate(-38,-46) scale(1,1)"><g><path fill="none" stroke="none"/><text fill="#000000" stroke="none" font-family="Arial" font-size="13px" font-style="normal" font-weight="normal" text-decoration="none" x="400.3291015625" y="505">UserName</text></g></g><g transform="translate(-38,-46) scale(1,1)"><g><path fill="none" stroke="none"/><text fill="#000000" stroke="none" font-family="Arial" font-size="13px" font-style="normal" font-weight="normal" text-decoration="none" x="474.6435546875" y="505">VARCHAR(50)</text></g></g><g transform="translate(-38,-46) scale(1,1)"><g><path fill="none" stroke="none"/><text fill="#000000" stroke="none" font-family="Arial" font-size="13px" font-style="normal" font-weight="normal" text-decoration="none" x="373" y="520">FK</text></g></g><g transform="translate(-38,-46) scale(1,1)"><g><path fill="none" stroke="none"/><text fill="#000000" stroke="none" font-family="Arial" font-size="13px" font-style="normal" font-weight="normal" text-decoration="none" x="400.3291015625" y="520">Bet_ID</text></g></g><g transform="translate(-38,-46) scale(1,1)"><g><path fill="none" stroke="none"/><text fill="#000000" stroke="none" font-family="Arial" font-size="13px" font-style="normal" font-weight="normal" text-decoration="none" x="474.6435546875" y="520">INTEGER(50)</text></g></g><g transform="translate(-38,-46) scale(1,1)"><g><path fill="none" stroke="none"/><text fill="#000000" stroke="none" font-family="Arial" font-size="13px" font-style="normal" font-weight="normal" text-decoration="none" x="373" y="535"></text></g></g><g transform="translate(-38,-46) scale(1,1)"><g><path fill="none" stroke="none"/><text fill="#000000" stroke="none" font-family="Arial" font-size="13px" font-style="normal" font-weight="normal" text-decoration="none" x="400.3291015625" y="535">Msg</text></g></g><g transform="translate(-38,-46) scale(1,1)"><g><path fill="none" stroke="none"/><text fill="#000000" stroke="none" font-family="Arial" font-size="13px" font-style="normal" font-weight="normal" text-decoration="none" x="474.6435546875" y="535">VARCHAR(100)</text></g></g><g transform="translate(-38,-46) scale(1,1)"><g><path fill="none" stroke="none"/><text fill="#000000" stroke="none" font-family="Arial" font-size="13px" font-style="normal" font-weight="normal" text-decoration="none" x="373" y="550"></text></g></g><g transform="translate(-38,-46) scale(1,1)"><g><path fill="none" stroke="none"/><text fill="#000000" stroke="none" font-family="Arial" font-size="13px" font-style="normal" font-weight="normal" text-decoration="none" x="400.3291015625" y="550">Amount</text></g></g><g transform="translate(-38,-46) scale(1,1)"><g><path fill="none" stroke="none"/><text fill="#000000" stroke="none" font-family="Arial" font-size="13px" font-style="normal" font-weight="normal" text-decoration="none" x="474.6435546875" y="550">INTEGER(50)</text></g></g><g transform="translate(-38,-46) scale(1,1)"><path fill="none" stroke="#000000" d="M 437 192 L 437 111 M 437 111 A 8 8 0 0 1 445 103 L 576 103" stroke-miterlimit="10"/></g><g transform="translate(-38,-46) scale(1,1)"><path fill="none" stroke="#000000" d="M 562 103 L 576 110" stroke-miterlimit="10"/></g><g transform="translate(-38,-46) scale(1,1)"><path fill="none" stroke="#000000" d="M 562 103 L 576 96" stroke-miterlimit="10"/></g><g transform="translate(-38,-46) scale(1,1)"><path fill="none" stroke="#000000" d="M 430 185 L 444 185" stroke-miterlimit="10"/></g><g transform="translate(-38,-46) scale(1,1)"><g><path fill="none" stroke="none"/><text fill="#000000" stroke="none" font-family="Arial" font-size="13px" font-style="normal" font-weight="normal" text-decoration="none" x="421.614990234375" y="172.5"></text></g></g><g transform="translate(-38,-46) scale(1,1)"><g><path fill="none" stroke="none"/><text fill="#000000" stroke="none" font-family="Arial" font-size="13px" font-style="normal" font-weight="normal" text-decoration="none" x="549.5" y="94.5"></text></g></g><g transform="translate(-38,-46) scale(1,1)"><path fill="none" stroke="#000000" d="M 328 260 L 180 260 M 180 260 A 8 8 0 0 0 172 268 L 172 272" stroke-miterlimit="10"/></g><g transform="translate(-38,-46) scale(1,1)"><path fill="none" stroke="#000000" d="M 165 265 L 179 265" stroke-miterlimit="10"/></g><g transform="translate(-38,-46) scale(1,1)"><path fill="none" stroke="#000000" d="M 321 267 L 321 253" stroke-miterlimit="10"/></g><g transform="translate(-38,-46) scale(1,1)"><g><path fill="none" stroke="none"/><text fill="#000000" stroke="none" font-family="Arial" font-size="13px" font-style="normal" font-weight="normal" text-decoration="none" x="301.5" y="280.5"></text></g></g><g transform="translate(-38,-46) scale(1,1)"><g><path fill="none" stroke="none"/><text fill="#000000" stroke="none" font-family="Arial" font-size="13px" font-style="normal" font-weight="normal" text-decoration="none" x="186.5" y="252.5"></text></g></g><g transform="translate(-38,-46) scale(1,1)"><path fill="none" stroke="#000000" d="M 578 260 L 608 260 M 608 260 A 8 8 0 0 1 616 268 L 616 392" stroke-miterlimit="10"/></g><g transform="translate(-38,-46) scale(1,1)"><path fill="none" stroke="#000000" d="M 609 385 L 623 385" stroke-miterlimit="10"/></g><g transform="translate(-38,-46) scale(1,1)"><path fill="none" stroke="#000000" d="M 585 253 L 585 267" stroke-miterlimit="10"/></g><g transform="translate(-38,-46) scale(1,1)"><g><path fill="none" stroke="none"/><text fill="#000000" stroke="none" font-family="Arial" font-size="13px" font-style="normal" font-weight="normal" text-decoration="none" x="602.5" y="251.5"></text></g></g><g transform="translate(-38,-46) scale(1,1)"><g><path fill="none" stroke="none"/><text fill="#000000" stroke="none" font-family="Arial" font-size="13px" font-style="normal" font-weight="normal" text-decoration="none" x="630.5" y="372.5"></text></g></g><g transform="translate(-38,-46) scale(1,1)"><path fill="none" stroke="#000000" d="M 242 531 L 368 531" stroke-miterlimit="10"/></g><g transform="translate(-38,-46) scale(1,1)"><path fill="none" stroke="#000000" d="M 361 538 L 361 524" stroke-miterlimit="10"/></g><g transform="translate(-38,-46) scale(1,1)"><path fill="none" stroke="#000000" d="M 249 524 L 249 538" stroke-miterlimit="10"/></g><g transform="translate(-38,-46) scale(1,1)"><g><path fill="none" stroke="none"/><text fill="#000000" stroke="none" font-family="Arial" font-size="13px" font-style="normal" font-weight="normal" text-decoration="none" x="266.5" y="522.5"></text></g></g><g transform="translate(-38,-46) scale(1,1)"><g><path fill="none" stroke="none"/><text fill="#000000" stroke="none" font-family="Arial" font-size="13px" font-style="normal" font-weight="normal" text-decoration="none" x="341.5" y="522.5"></text></g></g><g transform="translate(-38,-46) scale(1,1)"><path fill="none" stroke="#000000" d="M 458 328 L 458 464" stroke-miterlimit="10"/></g><g transform="translate(-38,-46) scale(1,1)"><path fill="none" stroke="#000000" d="M 458 450 L 451 464" stroke-miterlimit="10"/></g><g transform="translate(-38,-46) scale(1,1)"><path fill="none" stroke="#000000" d="M 458 450 L 465 464" stroke-miterlimit="10"/></g><g transform="translate(-38,-46) scale(1,1)"><path fill="#FFFFFF" stroke="none" d="M 451 442 C 451 438.1340064 454.1340064 435 458 435 C 461.8659936 435 465 438.1340064 465 442 C 465 445.8659936 461.8659936 449 458 449 C 454.1340064 449 451 445.8659936 451 442 Z"/></g><g transform="translate(-38,-46) scale(1,1)"><path fill="none" stroke="#000000" d="M 451 442 C 451 438.1340064 454.1340064 435 458 435 C 461.8659936 435 465 438.1340064 465 442 C 465 445.8659936 461.8659936 449 458 449 C 454.1340064 449 451 445.8659936 451 442 Z" stroke-miterlimit="10"/></g><g transform="translate(-38,-46) scale(1,1)"><path fill="none" stroke="#000000" d="M 465 335 L 451 335" stroke-miterlimit="10"/></g><g transform="translate(-38,-46) scale(1,1)"><g><path fill="none" stroke="none"/><text fill="#000000" stroke="none" font-family="Arial" font-size="13px" font-style="normal" font-weight="normal" text-decoration="none" x="472.5" y="359.5"></text></g></g><g transform="translate(-38,-46) scale(1,1)"><g><path fill="none" stroke="none"/><text fill="#000000" stroke="none" font-family="Arial" font-size="13px" font-style="normal" font-weight="normal" text-decoration="none" x="472.5" y="444.5"></text></g></g></g></svg>